<?xml version="1.0" standalone="no"?>
<!DOCTYPE svg PUBLIC "-//W3C//DTD SVG 20010904//EN"
 "http://www.w3.org/TR/2001/REC-SVG-20010904/DTD/svg10.dtd">
<svg version="1.0" xmlns="http://www.w3.org/2000/svg"
 width="800.000000pt" height="800.000000pt" viewBox="0 0 800.000000 800.000000"
 preserveAspectRatio="xMidYMid meet">
<metadata>
Created by potrace 1.14, written by Peter Selinger 2001-2017
</metadata>
<g transform="translate(0.000000,800.000000) scale(0.100000,-0.100000)"
fill="#000000" stroke="none">
<path d="M0 4000 l0 -4000 4000 0 4000 0 0 3225 0 3225 -22 -4 c-13 -3 -72
-13 -133 -22 -160 -23 -535 -99 -720 -145 -248 -62 -680 -195 -840 -259 -16
-6 -37 -13 -45 -15 -36 -9 -382 -153 -516 -215 -267 -124 -635 -322 -834 -449
-36 -23 -72 -44 -80 -48 -8 -4 -17 -9 -20 -12 -3 -3 -66 -46 -140 -95 -242
-161 -482 -347 -725 -560 -112 -98 -456 -441 -537 -534 -37 -42 -75 -86 -85
-97 -180 -199 -443 -562 -603 -830 -29 -49 -63 -106 -75 -125 -51 -85 -95
-180 -95 -208 0 -16 9 -40 19 -53 l19 -24 1534 -5 c1441 -5 1536 -6 1578 -23
56 -22 96 -57 78 -69 -7 -4 -783 -8 -1725 -8 l-1712 0 38 83 c85 184 244 460
404 701 864 1301 2266 2312 3907 2817 366 113 737 200 1095 259 105 17 200 33
213 36 22 4 22 5 22 214 l0 210 -42 -5 c-848 -100 -1564 -286 -2263 -589
l-129 -56 -1646 0 -1645 0 -84 -198 c-127 -298 -162 -368 -173 -348 -13 22
-16 92 -7 142 5 23 29 88 54 145 88 198 122 251 185 293 83 54 -18 51 1685 56
1397 5 1586 8 1631 22 28 8 136 49 240 91 492 196 910 323 1382 418 286 58
687 119 780 119 l32 0 0 470 0 470 -4000 0 -4000 0 0 -4000z m4540 1752 c0 -4
-21 -20 -48 -37 -74 -47 -266 -188 -397 -293 -393 -313 -769 -691 -1059 -1065
-584 -750 -945 -1575 -1085 -2481 -11 -70 -22 -130 -25 -133 -14 -15 -29 87
-29 202 0 214 41 410 165 795 138 427 364 890 642 1314 43 66 82 124 87 130 5
6 54 70 109 143 92 122 234 301 249 313 3 3 58 64 123 135 196 219 504 509
735 693 125 100 149 140 101 172 -20 13 -155 16 -983 20 -760 4 -966 8 -990
18 -39 17 -95 55 -95 64 0 7 360 10 1898 15 331 1 602 -1 602 -5z m1258 -3141
c19 -53 -2 -147 -63 -286 -83 -192 -126 -249 -221 -298 -67 -35 -176 -37
-1727 -37 -1469 0 -1530 0 -1570 -18 -59 -27 -104 -67 -133 -121 -45 -84 -71
-125 -83 -129 -14 -5 -13 1 45 206 24 83 44 154 44 157 0 3 775 5 1723 5
l1722 0 31 78 c63 155 207 472 214 472 5 0 13 -13 18 -29z"/>
</g>
</svg>
